<?xml version="1.0" encoding="utf-8"?>
<!-- Generator: Adobe Illustrator 21.1.0, SVG Export Plug-In . SVG Version: 6.00 Build 0)  -->
<svg version="1.1" id="Layer_1" xmlns="http://www.w3.org/2000/svg" xmlns:xlink="http://www.w3.org/1999/xlink" x="0px" y="0px"
	 viewBox="0 0 100 100" style="enable-background:new 0 0 100 100;" xml:space="preserve">
<style type="text/css">
	.st0{fill:#000000;}
</style>
<path class="st0" d="M50,100c27.7,0,50-22.3,50-50S77.7,0,50,0S0,22.3,0,50S22.3,100,50,100z M33.3,46.2c4.2,0,8.3-3.3,8.3-8.3
	s-4.2-8.3-8.3-8.3S25,32.9,25,37.9S29.2,46.2,33.3,46.2z M50,91.7C27,91.7,8.3,73,8.3,50S27,8.3,50,8.3S91.7,27,91.7,50
	S73,91.7,50,91.7z M23.3,63.1c16.2,10.3,37.1,10.4,53.2,0.1l-4.3-7c-13.7,8.5-31,8.4-44.5-0.1L23.3,63.1z M67.1,46.2
	c4.2,0,8.3-3.3,8.3-8.3s-4.2-8.3-8.3-8.3s-8.3,3.3-8.3,8.3S62.9,46.2,67.1,46.2z"/>
</svg>
