<?xml version="1.0" encoding="UTF-8" standalone="no"?>
<svg
   fill="none"
   viewBox="0 0 15 15"
   version="1.1"
   id="svg826"
   sodipodi:docname="downLeftReply.svg"
   inkscape:version="1.1.1 (c3084ef, 2021-09-22)"
   xmlns:inkscape="http://www.inkscape.org/namespaces/inkscape"
   xmlns:sodipodi="http://sodipodi.sourceforge.net/DTD/sodipodi-0.dtd"
   xmlns="http://www.w3.org/2000/svg"
   xmlns:svg="http://www.w3.org/2000/svg">
  <defs
     id="defs830" />
  <sodipodi:namedview
     id="namedview828"
     pagecolor="#ffffff"
     bordercolor="#666666"
     borderopacity="1.0"
     inkscape:pageshadow="2"
     inkscape:pageopacity="0.0"
     inkscape:pagecheckerboard="0"
     showgrid="false"
     inkscape:window-maximized="0"
     inkscape:current-layer="svg826" />
  <path
     clip-rule="evenodd"
     d="M 9.8770003,4.0000002 H 11.5 c 0.666666,0 0.666666,1 0,1 H 9.9000003 c -1.128,0 -1.945,0 -2.586,0.053 -0.6370001,0.052 -1.0570001,0.152 -1.4030001,0.328 -0.6587999,0.3355971 -1.1944028,0.8712001 -1.5299999,1.53 -0.176,0.346 -0.276,0.766 -0.3280001,1.4030001 -0.053,0.641 -0.053,0.586 -0.053,0.586 V 10.5 c 0,0.666666 -0.9999999,0.666666 -0.9999999,0 V 8.8770003 c 0,0 0,0.042 0.056,-0.645 0.057,-0.6980001 0.175,-1.265 0.434,-1.7750001 0.431469,-0.8469536 1.1200463,-1.5355309 1.9669999,-1.967 0.51,-0.26 1.077,-0.377 1.7750001,-0.434 0.6879999,-0.056 1.5439999,-0.056 2.645,-0.056 z"
     fill="#bbbbbb"
     fill-rule="evenodd"
     class="fill-000000"
     id="path824"
     sodipodi:nodetypes="sssscccccsscccccs" />
</svg>
