<svg xmlns="http://www.w3.org/2000/svg" viewBox="0 0 100 100"><path fill="#e0e0e0" d="M12 70.7s-2.6-5.6-4-11.9c-.9-4.2-1-8.7-.7-11.8C8.5 30.3 19.7 11.3 39.1 5.3 53.6.8 68.6 1.7 79.5 9.7 93.4 20 92.8 22.2 92.8 22.2L73.1 41.6s-4.4-8.8-13.7-12c-6.5-2.3-11.7-1.4-16.2-.6-5.7 1-15.6 4.9-22.6 13.6-2.4 3-4.5 6.1-6.2 10.6-3 8.3-2.4 17.5-2.4 17.5"/><path fill="#fff" d="M58.3 99h-1c-14.7-.5-23.4-4.2-27.3-6.4-1.5 1.5-3.8 3.4-6.5 4.4-4.7 1.7-10.2 1-10.5 1l-7.3-1 5.9-4.4c.1-.1 3.3-2.6 3.3-6.7.1-5.3-1.3-7.9-2.4-10.1-5.5-10.7-7.7-19.6-7-29 1.2-16.2 12.1-36.6 33-43 16-4.9 31.2-3.2 41.9 4.8 15.1 11.2 14.5 13.8 14.1 15.3l-.2.8-22.8 22.2-1.8-3.8c0-.1-3.4-6.9-11.1-9.3-4.7-1.5-10.4-.1-13.6 2-8.6 5.8-11.1 15.4-6.1 22.9 3.9 5.7 9.7 8.5 16.8 8 7.7-.5 14.1-9.8 14.1-9.9l2-3 23.7 23.1L94 79c-.6.9-15.2 20-35.7 20M29 84.5l2.4 1.9c.1 0 7.9 6 26.1 6.6 14.2.5 25.8-10.8 30-15.5L72.7 63c-3.1 3.6-9.1 9.3-16.5 9.8-9.3.6-17.1-3.1-22.2-10.6C27.1 52 30.4 38.6 41.7 31c4.4-3 11.8-5 18.7-2.8 6.3 2 10.4 6.1 12.6 9l14.8-14.4c-1.3-1.4-4.2-4.3-11-9.3-9.1-6.8-22.5-8.2-36.6-3.9C22 15.1 12.5 33 11.5 47.3c-.6 8.2 1.3 15.9 6.4 25.7 1.6 3.1 3.2 6.7 3.1 13 0 2.3-.6 4.3-1.4 5.9.6-.1 1.2-.3 1.8-.5 2.5-.9 5-3.6 5.7-4.5z"/></svg>