<?xml version="1.0" encoding="utf-8"?>
<!-- Generator: Adobe Illustrator 21.1.0, SVG Export Plug-In . SVG Version: 6.00 Build 0)  -->
<svg version="1.1" id="Layer_1" xmlns="http://www.w3.org/2000/svg" xmlns:xlink="http://www.w3.org/1999/xlink" x="0px" y="0px"
	 viewBox="0 0 100 100" style="enable-background:new 0 0 100 100;" xml:space="preserve">
<style type="text/css">
	.st0{fill:#FFFFFF;}
</style>
<g>
	<g>
		<path class="st0" d="M89.7,93.1c0,3.1-2.5,5.7-5.7,5.7H15.9c-3.1,0-5.7-2.5-5.7-5.7c0-21.9,17.8-39.7,39.7-39.7
			S89.7,71.2,89.7,93.1z M50,60.2c-17.8,0-32.3,14.1-32.9,31.8h65.8C82.3,74.3,67.8,60.2,50,60.2z M50,48.8
			c-13.2,0-23.8-10.7-23.8-23.8S36.8,1.2,50,1.2S73.8,11.9,73.8,25S63.2,48.8,50,48.8z M50,42c9.4,0,17-7.6,17-17S59.4,8,50,8
			s-17,7.6-17,17S40.6,42,50,42z"/>
	</g>
</g>
</svg>
