<?xml version="1.0" encoding="utf-8"?>
<!-- Generator: Adobe Illustrator 23.0.0, SVG Export Plug-In . SVG Version: 6.00 Build 0)  -->
<svg version="1.1" id="Layer_1" xmlns="http://www.w3.org/2000/svg" xmlns:xlink="http://www.w3.org/1999/xlink" x="0px" y="0px"
	 viewBox="0 0 100 100" style="enable-background:new 0 0 100 100;" xml:space="preserve">
<style type="text/css">
	.st0{fill:#FFFFFF;}
	.st1{fill:#848484;}
</style>
<g>
	<path class="st0" d="M67.97,49l-43.3,43.3c-3.48,3.48-9.17,3.48-12.65,0l-2.86-2.86c-3.48-3.48-3.48-9.17,0-12.65l43.3-43.3
		c3.48-3.48,9.17-3.48,12.65,0l2.86,2.86C71.45,39.83,71.45,45.52,67.97,49z"/>
	<path class="st0" d="M18.35,97.41c-2.93,0-5.86-1.12-8.09-3.35L7.4,91.21c-4.46-4.46-4.46-11.72,0-16.18l43.3-43.3
		c4.46-4.46,11.72-4.46,16.18,0l2.86,2.86c2.15,2.15,3.34,5.03,3.34,8.09s-1.19,5.94-3.34,8.09l-43.3,43.3
		C24.21,96.29,21.28,97.41,18.35,97.41z M58.79,33.38c-1.65,0-3.3,0.63-4.56,1.88l-43.3,43.3c-2.51,2.51-2.51,6.6,0,9.11l2.86,2.86
		c2.51,2.51,6.6,2.51,9.11,0l43.3-43.3c2.51-2.51,2.51-6.6,0-9.11l-2.86-2.86C62.09,34,60.44,33.38,58.79,33.38z"/>
</g>
<g>
	<path class="st0" d="M73.91,10.41L63.57,20.75l3.24,14.05l13.44,3.24l10.65-10.65l4.22,0.91c-0.73,3.87-4.2,10.95-7.19,13.95
		c-7.93,7.93-20.78,7.93-28.7,0s-7.93-20.78,0-28.7c3-3,10.16-6.42,14.04-7.15L73.91,10.41z"/>
	<path class="st0" d="M73.57,50.68c-5.84,0-11.67-2.22-16.12-6.67c-8.89-8.89-8.89-23.35,0-32.24c3.44-3.44,11.07-7.04,15.35-7.84
		l2.52-0.47l1.27,7.8L66.32,21.54l2.58,11.19l10.58,2.55l10.62-10.62l7.93,1.71l-0.45,2.39c-0.79,4.2-4.41,11.78-7.88,15.25
		C85.24,48.46,79.4,50.68,73.57,50.68z M71.22,9.56c-3.52,1.24-8.14,3.66-10.24,5.75c-6.94,6.94-6.94,18.23,0,25.17
		c6.94,6.94,18.23,6.94,25.17,0c2.15-2.15,4.62-6.81,5.84-10.3l-0.29-0.06L81.02,40.8l-16.31-3.93l-3.9-16.9L71.22,9.56z"/>
</g>
<g>
	<path class="st1" d="M14.37,88.69l-1.47-1.47c-2.18-2.18-2.18-5.73,0-7.91l38.5-38.5c2.18-2.18,5.73-2.18,7.91,0l1.47,1.47
		c2.18,2.18,2.18,5.73,0,7.91l-38.5,38.5C20.11,90.86,16.55,90.86,14.37,88.69z"/>
</g>
<g>
</g>
<g>
</g>
</svg>
