<?xml version="1.0" encoding="utf-8"?>
<!-- Generator: Adobe Illustrator 23.0.0, SVG Export Plug-In . SVG Version: 6.00 Build 0)  -->
<svg version="1.1" id="Layer_1" xmlns="http://www.w3.org/2000/svg" xmlns:xlink="http://www.w3.org/1999/xlink" x="0px" y="0px"
	 viewBox="0 0 100 100" style="enable-background:new 0 0 100 100;" xml:space="preserve">
<style type="text/css">
	.st0{fill:#A5A5A5;}
	.st1{fill:#FFFFFF;}
	.st2{fill:none;stroke:#FFFFFF;stroke-width:4;stroke-miterlimit:10;}
</style>
<g>
	<rect x="11.66" y="27.28" class="st0" width="76.69" height="5"/>
</g>
<g>
	<rect x="7.33" y="47.5" class="st0" width="85.33" height="5"/>
</g>
<g>
	<rect x="11.66" y="68.06" class="st0" width="76.69" height="5"/>
</g>
<g>
	<path class="st1" d="M31.38,92.12C30.79,91.53,17.06,77.24,17.06,50c0-24.29,14.25-41.01,14.85-41.71l3.78,3.27L33.8,9.93
		l1.89,1.63C35.55,11.72,22.06,27.63,22.06,50c0,25.09,12.76,38.49,12.89,38.62L31.38,92.12z"/>
</g>
<g>
	<rect x="47.5" y="6.81" class="st1" width="5" height="86.94"/>
</g>
<g>
	<path class="st2" d="M68.11,10.19"/>
</g>
<g>
	<path class="st1" d="M41.2,94.54C40.78,93.84,30.92,77.27,30.94,50c0.02-14.23,2.76-25.22,5.07-31.94
		c0.04-0.11,4.05-11.48,6.3-12.48l1.02,2.28l-1.08,2.26l1.08-2.26l2.05,1.43C45.29,9.43,35.97,24.13,35.94,50
		c-0.03,25.89,9.43,41.78,9.53,41.94L41.2,94.54z"/>
</g>
<g>
	<path class="st1" d="M59.11,94.32l-4-3c0.07-0.1,7.94-11.25,7.94-41.32c0-30.41-6.92-40.6-6.99-40.7l4.09-2.88
		c0.32,0.46,7.9,11.6,7.9,43.58C68.06,82.02,59.48,93.83,59.11,94.32z"/>
</g>
<g>
	<path class="st1" d="M50,96.25c-25.35,0-45.97-20.62-45.97-45.97S24.65,4.31,50,4.31c25.35,0,45.97,20.62,45.97,45.97
		S75.35,96.25,50,96.25z M50,9.31c-22.59,0-40.97,18.38-40.97,40.97S27.41,91.25,50,91.25c22.59,0,40.97-18.38,40.97-40.97
		S72.59,9.31,50,9.31z"/>
</g>
<g>
	<path class="st1" d="M68.98,92.12l-3.56-3.51C65.54,88.49,78.3,75.09,78.3,50c0-22.37-13.5-38.28-13.63-38.44l3.78-3.27
		C69.05,8.99,83.3,25.71,83.3,50C83.3,77.24,69.56,91.53,68.98,92.12z"/>
</g>
</svg>
