<?xml version="1.0" encoding="utf-8"?>
<!-- Generator: Adobe Illustrator 23.0.0, SVG Export Plug-In . SVG Version: 6.00 Build 0)  -->
<svg version="1.1" id="Layer_1" xmlns="http://www.w3.org/2000/svg" xmlns:xlink="http://www.w3.org/1999/xlink" x="0px" y="0px"
	 viewBox="0 0 100 100" style="enable-background:new 0 0 100 100;" xml:space="preserve">
<style type="text/css">
	.st0{fill:#FFFFFF;}
	.st1{fill:#848484;}
</style>
<g>
	<path class="st0" d="M50,92.08L13.57,71.05V28.98L50,7.95l36.43,21.03v42.07L50,92.08z M18.57,68.16L50,86.31l31.43-18.15V31.87
		L50,13.72L18.57,31.87V68.16z"/>
</g>
<g>
	<circle class="st0" cx="50" cy="10.89" r="8.89"/>
	<path class="st1" d="M50,20.78c-5.45,0-9.89-4.44-9.89-9.89S44.55,1,50,1c5.45,0,9.89,4.44,9.89,9.89S55.45,20.78,50,20.78z M50,3
		c-4.35,0-7.89,3.54-7.89,7.89s3.54,7.89,7.89,7.89c4.35,0,7.89-3.54,7.89-7.89S54.35,3,50,3z"/>
</g>
<g>
	<circle class="st0" cx="83.88" cy="30.46" r="8.89"/>
	<path class="st1" d="M83.88,40.35c-5.45,0-9.89-4.44-9.89-9.89s4.44-9.89,9.89-9.89s9.89,4.44,9.89,9.89S89.33,40.35,83.88,40.35z
		 M83.88,22.57c-4.35,0-7.89,3.54-7.89,7.89s3.54,7.89,7.89,7.89s7.89-3.54,7.89-7.89S88.23,22.57,83.88,22.57z"/>
</g>
<g>
	<circle class="st0" cx="83.88" cy="69.57" r="8.89"/>
	<path class="st1" d="M83.88,79.46c-5.45,0-9.89-4.44-9.89-9.89s4.44-9.89,9.89-9.89s9.89,4.44,9.89,9.89S89.33,79.46,83.88,79.46z
		 M83.88,61.68c-4.35,0-7.89,3.54-7.89,7.89s3.54,7.89,7.89,7.89s7.89-3.54,7.89-7.89S88.23,61.68,83.88,61.68z"/>
</g>
<g>
	<circle class="st0" cx="50" cy="89.11" r="8.89"/>
	<path class="st1" d="M50,99c-5.45,0-9.89-4.44-9.89-9.89s4.44-9.89,9.89-9.89c5.45,0,9.89,4.44,9.89,9.89S55.45,99,50,99z
		 M50,81.22c-4.35,0-7.89,3.54-7.89,7.89S45.65,97,50,97c4.35,0,7.89-3.54,7.89-7.89S54.35,81.22,50,81.22z"/>
</g>
<g>
	<circle class="st0" cx="16.12" cy="69.57" r="8.89"/>
	<path class="st1" d="M16.13,79.46c-5.45,0-9.89-4.44-9.89-9.89s4.44-9.89,9.89-9.89s9.89,4.44,9.89,9.89S21.58,79.46,16.13,79.46z
		 M16.13,61.68c-4.35,0-7.89,3.54-7.89,7.89s3.54,7.89,7.89,7.89s7.89-3.54,7.89-7.89S20.48,61.68,16.13,61.68z"/>
</g>
<g>
	<circle class="st0" cx="16.12" cy="30.46" r="8.89"/>
	<path class="st1" d="M16.13,40.35c-5.45,0-9.89-4.44-9.89-9.89s4.44-9.89,9.89-9.89s9.89,4.44,9.89,9.89S21.58,40.35,16.13,40.35z
		 M16.13,22.57c-4.35,0-7.89,3.54-7.89,7.89s3.54,7.89,7.89,7.89s7.89-3.54,7.89-7.89S20.48,22.57,16.13,22.57z"/>
</g>
</svg>
