<svg xmlns="http://www.w3.org/2000/svg" viewBox="0 0 100 100"><path fill="#fff" d="M50 88.53 16.64 69.27V30.75L50 11.5l33.36 19.26v38.52zM21.64 66.38 50 82.75l28.36-16.37V33.64L50 17.27 21.64 33.64z"/><circle cx="50" cy="14.7" r="9.93" fill="#fff"/><path fill="#848484" d="M50 25.63c-6.02 0-10.93-4.9-10.93-10.93 0-6.02 4.9-10.93 10.93-10.93s10.93 4.9 10.93 10.93S56.03 25.63 50 25.63m0-19.85c-4.92 0-8.93 4-8.93 8.93s4 8.93 8.93 8.93c4.92 0 8.93-4 8.93-8.93S54.92 5.78 50 5.78"/><circle cx="80.39" cy="32.47" r="9.93" fill="#fff"/><path fill="#848484" d="M80.39 43.39c-6.03 0-10.93-4.9-10.93-10.93s4.9-10.93 10.93-10.93 10.93 4.9 10.93 10.93-4.91 10.93-10.93 10.93m0-19.85c-4.92 0-8.93 4-8.93 8.93s4 8.93 8.93 8.93 8.93-4 8.93-8.93-4.01-8.93-8.93-8.93"/><circle cx="80.39" cy="68.02" r="9.93" fill="#fff"/><path fill="#848484" d="M80.39 78.95c-6.03 0-10.93-4.9-10.93-10.93s4.9-10.93 10.93-10.93S91.32 62 91.32 68.02s-4.91 10.93-10.93 10.93m0-19.85c-4.92 0-8.93 4-8.93 8.93s4 8.93 8.93 8.93 8.93-4 8.93-8.93-4.01-8.93-8.93-8.93"/><circle cx="50" cy="85.3" r="9.93" fill="#fff"/><path fill="#848484" d="M50 96.22c-6.02 0-10.93-4.9-10.93-10.93S43.98 74.37 50 74.37c6.03 0 10.93 4.9 10.93 10.93S56.03 96.22 50 96.22m0-19.85c-4.92 0-8.93 4-8.93 8.93 0 4.92 4 8.93 8.93 8.93 4.92 0 8.93-4 8.93-8.93s-4.01-8.93-8.93-8.93"/><circle cx="19.24" cy="67.77" r="9.93" fill="#fff"/><path fill="#848484" d="M19.24 78.7c-6.03 0-10.93-4.9-10.93-10.93s4.9-10.93 10.93-10.93c6.02 0 10.93 4.9 10.93 10.93S25.27 78.7 19.24 78.7m0-19.86c-4.92 0-8.93 4-8.93 8.93s4 8.93 8.93 8.93 8.93-4 8.93-8.93-4.01-8.93-8.93-8.93"/><circle cx="19.24" cy="32.47" r="9.93" fill="#fff"/><path fill="#848484" d="M19.24 43.39c-6.03 0-10.93-4.9-10.93-10.93s4.9-10.93 10.93-10.93c6.02 0 10.93 4.9 10.93 10.93s-4.9 10.93-10.93 10.93m0-19.85c-4.92 0-8.93 4-8.93 8.93s4 8.93 8.93 8.93 8.93-4 8.93-8.93-4.01-8.93-8.93-8.93"/></svg>