<?xml version="1.0" encoding="utf-8"?>
<!-- Generator: Adobe Illustrator 23.0.0, SVG Export Plug-In . SVG Version: 6.00 Build 0)  -->
<svg version="1.1" id="Layer_1" xmlns="http://www.w3.org/2000/svg" xmlns:xlink="http://www.w3.org/1999/xlink" x="0px" y="0px"
	 viewBox="0 0 100 100" style="enable-background:new 0 0 100 100;" xml:space="preserve">
<style type="text/css">
	.st0{fill:#FFFFFF;}
	.st1{fill:#848484;}
</style>
<g>
	<path class="st0" d="M50,88.53L16.64,69.27V30.75L50,11.5l33.36,19.26v38.52L50,88.53z M21.64,66.38L50,82.75l28.36-16.37V33.64
		L50,17.27L21.64,33.64V66.38z"/>
</g>
<g>
	<circle class="st0" cx="50" cy="14.7" r="9.93"/>
	<path class="st1" d="M50,25.63c-6.02,0-10.93-4.9-10.93-10.93c0-6.02,4.9-10.93,10.93-10.93c6.03,0,10.93,4.9,10.93,10.93
		C60.93,20.73,56.03,25.63,50,25.63z M50,5.78c-4.92,0-8.93,4-8.93,8.93s4,8.93,8.93,8.93c4.92,0,8.93-4,8.93-8.93
		S54.92,5.78,50,5.78z"/>
</g>
<g>
	<circle class="st0" cx="80.39" cy="32.47" r="9.93"/>
	<path class="st1" d="M80.39,43.39c-6.03,0-10.93-4.9-10.93-10.93c0-6.03,4.9-10.93,10.93-10.93s10.93,4.9,10.93,10.93
		C91.32,38.49,86.41,43.39,80.39,43.39z M80.39,23.54c-4.92,0-8.93,4-8.93,8.93s4,8.93,8.93,8.93s8.93-4,8.93-8.93
		S85.31,23.54,80.39,23.54z"/>
</g>
<g>
	<circle class="st0" cx="80.39" cy="68.02" r="9.93"/>
	<path class="st1" d="M80.39,78.95c-6.03,0-10.93-4.9-10.93-10.93s4.9-10.93,10.93-10.93S91.32,62,91.32,68.02
		S86.41,78.95,80.39,78.95z M80.39,59.1c-4.92,0-8.93,4-8.93,8.93s4,8.93,8.93,8.93s8.93-4,8.93-8.93S85.31,59.1,80.39,59.1z"/>
</g>
<g>
	<circle class="st0" cx="50" cy="85.3" r="9.93"/>
	<path class="st1" d="M50,96.22c-6.02,0-10.93-4.9-10.93-10.93S43.98,74.37,50,74.37c6.03,0,10.93,4.9,10.93,10.93
		S56.03,96.22,50,96.22z M50,76.37c-4.92,0-8.93,4-8.93,8.93c0,4.92,4,8.93,8.93,8.93c4.92,0,8.93-4,8.93-8.93
		C58.93,80.37,54.92,76.37,50,76.37z"/>
</g>
<g>
	<circle class="st0" cx="19.24" cy="67.77" r="9.93"/>
	<path class="st1" d="M19.24,78.7c-6.03,0-10.93-4.9-10.93-10.93s4.9-10.93,10.93-10.93c6.02,0,10.93,4.9,10.93,10.93
		S25.27,78.7,19.24,78.7z M19.24,58.84c-4.92,0-8.93,4-8.93,8.93s4,8.93,8.93,8.93s8.93-4,8.93-8.93S24.16,58.84,19.24,58.84z"/>
</g>
<g>
	<circle class="st0" cx="19.24" cy="32.47" r="9.93"/>
	<path class="st1" d="M19.24,43.39c-6.03,0-10.93-4.9-10.93-10.93c0-6.03,4.9-10.93,10.93-10.93c6.02,0,10.93,4.9,10.93,10.93
		C30.17,38.49,25.27,43.39,19.24,43.39z M19.24,23.54c-4.92,0-8.93,4-8.93,8.93s4,8.93,8.93,8.93s8.93-4,8.93-8.93
		S24.16,23.54,19.24,23.54z"/>
</g>
</svg>
