<?xml version="1.0" encoding="UTF-8" standalone="no"?>
<svg
   width="24"
   height="24"
   fill="none"
   viewBox="0 0 24 24"
   version="1.1"
   id="svg1"
   sodipodi:docname="hint.svg"
   inkscape:version="1.4.3 (0d15f75042, 2025-12-25)"
   xmlns:inkscape="http://www.inkscape.org/namespaces/inkscape"
   xmlns:sodipodi="http://sodipodi.sourceforge.net/DTD/sodipodi-0.dtd"
   xmlns="http://www.w3.org/2000/svg"
   xmlns:svg="http://www.w3.org/2000/svg">
  <defs
     id="defs1" />
  <sodipodi:namedview
     id="namedview1"
     pagecolor="#ffffff"
     bordercolor="#000000"
     borderopacity="0.25"
     inkscape:showpageshadow="2"
     inkscape:pageopacity="0.0"
     inkscape:pagecheckerboard="0"
     inkscape:deskcolor="#d1d1d1"
     inkscape:zoom="49.625"
     inkscape:cx="11.989924"
     inkscape:cy="12"
     inkscape:window-width="2560"
     inkscape:window-height="1399"
     inkscape:window-x="1920"
     inkscape:window-y="41"
     inkscape:window-maximized="1"
     inkscape:current-layer="svg1" />
  <path
     d="m15.538 18.999-.29 1.259a2.25 2.25 0 0 1-2.02 1.735l-.173.007h-2.111a2.25 2.25 0 0 1-2.147-1.577l-.046-.167-.29-1.257h7.077ZM12 2.001a7.25 7.25 0 0 1 7.25 7.25c0 2.136-.936 4.093-2.765 5.84a.25.25 0 0 0-.071.125l-.528 2.283H8.114l-.526-2.283a.25.25 0 0 0-.071-.124C5.687 13.344 4.75 11.387 4.75 9.25A7.25 7.25 0 0 1 12 2.001Z"
     fill="#212121"
     id="path1"
     style="fill:#ffffff;fill-opacity:1" />
</svg>
