<?xml version="1.0" encoding="UTF-8" standalone="no"?>
<svg
   width="24"
   height="24"
   fill="none"
   viewBox="0 0 40 40"
   version="1.1"
   id="svg1"
   sodipodi:docname="hint.svg"
   inkscape:version="1.4.3 (0d15f75042, 2025-12-25)"
   xmlns:inkscape="http://www.inkscape.org/namespaces/inkscape"
   xmlns:sodipodi="http://sodipodi.sourceforge.net/DTD/sodipodi-0.dtd"
   xmlns="http://www.w3.org/2000/svg"
   xmlns:svg="http://www.w3.org/2000/svg">
  <defs
     id="defs1" />
  <sodipodi:namedview
     id="namedview1"
     pagecolor="#ffffff"
     bordercolor="#000000"
     borderopacity="0.25"
     inkscape:showpageshadow="2"
     inkscape:pageopacity="0.0"
     inkscape:pagecheckerboard="0"
     inkscape:deskcolor="#d1d1d1"
     inkscape:zoom="49.625"
     inkscape:cx="11.989924"
     inkscape:cy="12"
     inkscape:window-width="2560"
     inkscape:window-height="1399"
     inkscape:window-x="1920"
     inkscape:window-y="41"
     inkscape:window-maximized="1"
     inkscape:current-layer="svg1" />
  <path
     d="M12 2c5.523 0 10 4.478 10 10s-4.477 10-10 10S2 17.522 2 12 6.477 2 12 2Zm0 13.5a1 1 0 1 0 0 2 1 1 0 0 0 0-2Zm0-8.75A2.75 2.75 0 0 0 9.25 9.5a.75.75 0 0 0 1.493.102l.007-.102a1.25 1.25 0 1 1 2.5 0c0 .539-.135.805-.645 1.332l-.135.138c-.878.878-1.22 1.447-1.22 2.53a.75.75 0 0 0 1.5 0c0-.539.135-.805.645-1.332l.135-.138c.878-.878 1.22-1.447 1.22-2.53A2.75 2.75 0 0 0 12 6.75Z"
     fill="#212121"
     id="path1"
     style="fill:#ffffff;fill-opacity:1" />
</svg>
