<?xml version="1.0" encoding="UTF-8" standalone="no"?>
<svg
   fill="none"
   width="100"
   height="150"
   viewBox="0 -50 100 200"
   version="1.1"
   xmlns="http://www.w3.org/2000/svg">
    <mask id="letterMask">
        <rect
           x="0"
           y="0"
           width="100"
           height="100"
           fill="white" />
        <!-- Qt does not like <text>
        <text x="50" y="50" fill="black" style="font: 100px sans-serif" text-anchor="middle" dominant-baseline="middle">i</text>
        -->

        <!-- normal version 100px -->
        <!--
        <path
            d="m 50.100029,3.0999992 q 2,0 3.5,1.4 1.6,1.3 1.6,4.2 0,2.7999998 -1.6,4.1999998 -1.5,1.4 -3.5,1.4 -2.2,0 -3.7,-1.4 -1.5,-1.4 -1.5,-4.1999998 0,-2.9 1.5,-4.2 1.5,-1.4 3.7,-1.4 z m 4.3,20.0999998 v 53.6 h -8.8 v -53.6 z"
            fill="black"
            transform="translate(0, 10)" />
        -->

        <!-- bold version 100px -->
        <path
            d="m 50.050011,1.1999992 q 3.3,0 5.7,1.6 2.5,1.5 2.5,5.8 0,4.0999998 -2.5,5.6999998 -2.4,1.6 -5.7,1.6 -3.4,0 -5.8,-1.6 -2.4,-1.6 -2.4,-5.6999998 0,-4.3 2.4,-5.8 2.4,-1.6 5.8,-1.6 z m 7.5,21.4999998 v 54.6 h -15.1 v -54.6 z"
            fill="black"
            transform="translate(0, 10)" />
    </mask>
    <circle
       mask="url(#letterMask)"
       cx="50"
       cy="50"
       r="50"
       fill="#ffffff"
       stroke="#000000"
       stroke-width="0.25" />
</svg>
