<svg xmlns="http://www.w3.org/2000/svg" viewBox="0 0 100 100"><circle cx="50.48" cy="49.71" r="45" fill="none" stroke="#fff" stroke-width="8"/><path fill="#a5a5a5" d="M71.39 73.99c-1.94 1.94-5.13 1.94-7.07 0L26.01 35.68c-1.94-1.94-1.94-5.13 0-7.07l2.6-2.6c1.94-1.94 5.13-1.94 7.07 0l38.31 38.31c1.94 1.94 1.94 5.13 0 7.07z"/><path fill="#a5a5a5" d="M26.01 71.39c-1.94-1.94-1.94-5.13 0-7.07l38.31-38.31c1.94-1.94 5.13-1.94 7.07 0l2.6 2.6c1.94 1.94 1.94 5.13 0 7.07L35.68 73.99c-1.94 1.94-5.13 1.94-7.07 0z"/></svg>