<?xml version="1.0" encoding="utf-8"?>
<!-- Generator: Adobe Illustrator 23.0.0, SVG Export Plug-In . SVG Version: 6.00 Build 0)  -->
<svg version="1.1" id="Layer_1" xmlns="http://www.w3.org/2000/svg" xmlns:xlink="http://www.w3.org/1999/xlink" x="0px" y="0px"
	 viewBox="0 0 100 100" style="enable-background:new 0 0 100 100;" xml:space="preserve">
<style type="text/css">
	.st0{fill:none;stroke:#000000;stroke-width:8;stroke-miterlimit:10;}
	.st1{fill:none;stroke:#FFFFFF;stroke-width:8;stroke-miterlimit:10;}
	.st2{fill:#A5A5A5;}
</style>
<path class="st0" d="M94.3,65.3"/>
<path class="st0" d="M43.6,5.7"/>
<ellipse transform="matrix(0.7071 -0.7071 0.7071 0.7071 -20.3649 50.2553)" class="st1" cx="50.48" cy="49.71" rx="44.4" ry="45"/>
<g>
	<path class="st2" d="M71.39,73.99c-1.94,1.94-5.13,1.94-7.07,0L26.01,35.68c-1.94-1.94-1.94-5.13,0-7.07l2.6-2.6
		c1.94-1.94,5.13-1.94,7.07,0l38.31,38.31c1.94,1.94,1.94,5.13,0,7.07L71.39,73.99z"/>
</g>
<path class="st0" d="M19.3,65.3"/>
<g>
	<path class="st2" d="M26.01,71.39c-1.94-1.94-1.94-5.13,0-7.07l38.31-38.31c1.94-1.94,5.13-1.94,7.07,0l2.6,2.6
		c1.94,1.94,1.94,5.13,0,7.07L35.68,73.99c-1.94,1.94-5.13,1.94-7.07,0L26.01,71.39z"/>
</g>
</svg>
