<svg xmlns="http://www.w3.org/2000/svg" viewBox="0 0 100 100">
	<path fill="#a5a5a5" d="m48.1 52.19-6.43-4.42L69.12 7.06l24.52-.41z" />
	<path fill="#848484" d="M52.54 57.95 94.53 31.7 93.45 6.89 48.1 52.19z" />
	<path fill="#a5a5a5" d="m18.26 82.07-3.27-1.65-1.41-.66 13.61-16.65L5.91 41.84l9.52-10.18 29.33 23.92z" />
	<path fill="#848484" d="m68.15 84.78-23.39-29.2-26.5 26.49 1.72 4.49 17.58-13.34 20.68 20.94z" />
	<path fill="#fff"
		d="m13.82 81.05-1.55-1.26 13.57-16.61L4.5 41.84l11.26-11.26L45.39 54.8l-1.26 1.55-28.24-23.07-8.56 8.56 21.2 21.2z" />
	<path fill="#fff"
		d="M58.5 95.84 37.16 74.5 20.55 88.06l-1.26-1.54L37.3 71.81l21.2 21.2 8.56-8.56-23.23-28.43 1.55-1.27 24.38 29.83z" />
	<circle cx="14.09" cy="86.25" r="5.9" fill="#a5a5a5" />
	<path fill="#fff"
		d="M14.09 93.15a6.87 6.87 0 0 1-4.88-2.02c-1.3-1.3-2.02-3.04-2.02-4.88s.72-3.58 2.02-4.88a6.87 6.87 0 0 1 4.88-2.02c1.84 0 3.58.72 4.88 2.02s2.02 3.04 2.02 4.88-.72 3.58-2.02 4.88-3.04 2.02-4.88 2.02m0-11.81c-1.31 0-2.54.51-3.47 1.44s-1.44 2.16-1.44 3.47.51 2.54 1.44 3.47 2.16 1.44 3.47 1.44 2.54-.51 3.47-1.44S19 87.56 19 86.25s-.51-2.54-1.44-3.47a4.9 4.9 0 0 0-3.47-1.44M52.3 59.28l-4.91-6.38-6.91-5.26.53-.78C53.39 28.48 68.22 6.48 68.6 6.1c.37-.37.69-.69 25.05-.45l.96.01.95 26.58-.49.31zm-9.1-12.09 5.7 4.38 3.88 5.04 40.74-25.46-.84-23.51c-8.27-.08-20.61-.11-22.81.08-1.88 2.68-19.24 28.43-26.67 39.47" />
</svg>