<?xml version="1.0" encoding="utf-8"?>
<!-- Generator: Adobe Illustrator 23.0.0, SVG Export Plug-In . SVG Version: 6.00 Build 0)  -->
<svg version="1.1" id="Layer_1" xmlns="http://www.w3.org/2000/svg" xmlns:xlink="http://www.w3.org/1999/xlink" x="0px" y="0px"
	 viewBox="0 0 100 100" style="enable-background:new 0 0 100 100;" xml:space="preserve">
<style type="text/css">
	.st0{fill:#A5A5A5;}
	.st1{fill:#848484;}
	.st2{fill:#FFFFFF;}
</style>
<g>
	<g>
		<polygon class="st0" points="48.1,52.19 41.67,47.77 69.12,7.06 93.64,6.65 		"/>
	</g>
	<g>
		<polygon class="st1" points="52.54,57.95 94.53,31.7 93.45,6.89 48.1,52.19 		"/>
	</g>
	<g>
		<polygon class="st0" points="18.26,82.07 14.99,80.42 13.58,79.76 27.19,63.11 5.91,41.84 15.43,31.66 44.76,55.58 		"/>
	</g>
	<g>
		<polygon class="st1" points="68.15,84.78 44.76,55.58 18.26,82.07 19.98,86.56 37.56,73.22 58.24,94.16 		"/>
	</g>
	<g>
		<polygon class="st2" points="13.82,81.05 12.27,79.79 25.84,63.18 4.5,41.84 15.76,30.58 45.39,54.8 44.13,56.35 15.89,33.28 
			7.33,41.84 28.53,63.04 		"/>
	</g>
	<g>
		<polygon class="st2" points="58.5,95.84 37.16,74.5 20.55,88.06 19.29,86.52 37.3,71.81 58.5,93.01 67.06,84.45 43.83,56.02 
			45.38,54.75 69.76,84.58 		"/>
	</g>
	<g>
		<circle class="st0" cx="14.09" cy="86.25" r="5.9"/>
		<path class="st2" d="M14.09,93.15c-1.84,0-3.58-0.72-4.88-2.02c-1.3-1.3-2.02-3.04-2.02-4.88s0.72-3.58,2.02-4.88
			c1.3-1.3,3.04-2.02,4.88-2.02c1.84,0,3.58,0.72,4.88,2.02s2.02,3.04,2.02,4.88s-0.72,3.58-2.02,4.88S15.93,93.15,14.09,93.15z
			 M14.09,81.34c-1.31,0-2.54,0.51-3.47,1.44c-0.93,0.93-1.44,2.16-1.44,3.47s0.51,2.54,1.44,3.47s2.16,1.44,3.47,1.44
			c1.31,0,2.54-0.51,3.47-1.44l0,0c0.93-0.93,1.44-2.16,1.44-3.47s-0.51-2.54-1.44-3.47C16.63,81.86,15.4,81.34,14.09,81.34z"/>
	</g>
	<g>
		<path class="st2" d="M52.3,59.28l-4.91-6.38l-6.91-5.26l0.53-0.78C53.39,28.48,68.22,6.48,68.6,6.1
			c0.37-0.37,0.69-0.69,25.05-0.45l0.96,0.01l0.95,26.58l-0.49,0.31L52.3,59.28z M43.2,47.19l5.7,4.38l3.88,5.04l40.74-25.46
			L92.68,7.64c-8.27-0.08-20.61-0.11-22.81,0.08C67.99,10.4,50.63,36.15,43.2,47.19z"/>
	</g>
</g>
<g>
</g>
</svg>
