<?xml version="1.0" encoding="utf-8"?>
<!-- Generator: Adobe Illustrator 23.0.0, SVG Export Plug-In . SVG Version: 6.00 Build 0)  -->
<svg version="1.1" id="Layer_1" xmlns="http://www.w3.org/2000/svg" xmlns:xlink="http://www.w3.org/1999/xlink" x="0px" y="0px"
	 viewBox="0 0 100 100" style="enable-background:new 0 0 100 100;" xml:space="preserve">
<style type="text/css">
	.st0{fill:#474747;}
	.st1{fill:#FFFFFF;}
	.st2{fill:#848484;}
	.st3{fill:#A5A5A5;}
</style>
<g>
	<circle class="st0" cx="50" cy="50" r="40.5"/>
	<path class="st1" d="M50,92.5C26.57,92.5,7.5,73.43,7.5,50S26.57,7.5,50,7.5S92.5,26.57,92.5,50S73.43,92.5,50,92.5z M50,11.5
		c-21.23,0-38.5,17.27-38.5,38.5c0,21.23,17.27,38.5,38.5,38.5c21.23,0,38.5-17.27,38.5-38.5C88.5,28.77,71.23,11.5,50,11.5z"/>
</g>
<g>
	<circle class="st2" cx="50" cy="50" r="27.52"/>
	<path class="st1" d="M50,79.02C34,79.02,20.98,66,20.98,50S34,20.98,50,20.98S79.02,34,79.02,50S66,79.02,50,79.02z M50,23.98
		c-14.35,0-26.02,11.67-26.02,26.02S35.65,76.02,50,76.02S76.02,64.35,76.02,50S64.35,23.98,50,23.98z"/>
</g>
<g>
	<circle class="st3" cx="50" cy="50" r="17.46"/>
	<path class="st1" d="M50,68.46c-10.18,0-18.46-8.28-18.46-18.46c0-10.18,8.28-18.46,18.46-18.46c10.18,0,18.46,8.28,18.46,18.46
		C68.46,60.18,60.18,68.46,50,68.46z M50,33.54c-9.07,0-16.46,7.38-16.46,16.46S40.93,66.46,50,66.46S66.46,59.07,66.46,50
		S59.07,33.54,50,33.54z"/>
</g>
<g>
	<circle class="st1" cx="50" cy="50" r="9.03"/>
	<path class="st1" d="M50,59.53c-5.26,0-9.53-4.28-9.53-9.53c0-5.26,4.28-9.53,9.53-9.53c5.26,0,9.53,4.28,9.53,9.53
		C59.53,55.26,55.26,59.53,50,59.53z M50,41.47c-4.71,0-8.53,3.83-8.53,8.53c0,4.71,3.83,8.53,8.53,8.53c4.71,0,8.53-3.83,8.53-8.53
		C58.53,45.29,54.71,41.47,50,41.47z"/>
</g>
</svg>
