<?xml version="1.0" encoding="utf-8"?>
<!-- Generator: Adobe Illustrator 21.1.0, SVG Export Plug-In . SVG Version: 6.00 Build 0)  -->
<svg version="1.1" xmlns="http://www.w3.org/2000/svg" xmlns:xlink="http://www.w3.org/1999/xlink" x="0px" y="0px"
	 viewBox="0 0 100 100" style="enable-background:new 0 0 100 100;" xml:space="preserve">
<style type="text/css">
	.st0{fill:none;stroke:#FFFFFF;stroke-width:10;stroke-miterlimit:10;}
	.st1{fill:#FFFFFF;}
</style>
<g id="Layer_1">
	<path class="st0" d="M82.1,93.6H18.5c-6.6,0-12-5.4-12-12V18c0-6.6,5.4-12,12-12h63.6c6.6,0,12,5.4,12,12v63.6
		C94.1,88.2,88.7,93.6,82.1,93.6z"/>
	<g>
		<path class="st1" d="M59,26.8c0,3.6-0.8,9-2.4,16.1C55,50,53.9,54.1,53.3,55.2c-0.6,1.1-1.6,1.6-2.9,1.6c-1.4,0-2.4-0.4-2.9-1.3
			c-0.5-0.9-1.6-4.7-3.3-11.4c-1.7-6.7-2.6-12.5-2.6-17.2c0-5.7,2.9-8.6,8.8-8.6C56.1,18.2,59,21.1,59,26.8z"/>
	</g>
	<circle class="st1" cx="50.3" cy="71.3" r="9.5"/>
</g>
<g id="Layer_2">
</g>
</svg>
