<svg xmlns="http://www.w3.org/2000/svg" viewBox="0 0 100 100">
	<circle cx="50" cy="50" r="40.5" fill="#474747" />
	<path fill="#fff"
		d="M50 92.5C26.57 92.5 7.5 73.43 7.5 50S26.57 7.5 50 7.5 92.5 26.57 92.5 50 73.43 92.5 50 92.5m0-81c-21.23 0-38.5 17.27-38.5 38.5S28.77 88.5 50 88.5 88.5 71.23 88.5 50 71.23 11.5 50 11.5" />
	<circle cx="50" cy="50" r="27.52" fill="#848484" />
	<path fill="#fff"
		d="M50 79.02C34 79.02 20.98 66 20.98 50S34 20.98 50 20.98 79.02 34 79.02 50 66 79.02 50 79.02m0-55.04c-14.35 0-26.02 11.67-26.02 26.02S35.65 76.02 50 76.02 76.02 64.35 76.02 50 64.35 23.98 50 23.98" />
	<circle cx="50" cy="50" r="17.46" fill="#a5a5a5" />
	<path fill="#fff"
		d="M50 68.46c-10.18 0-18.46-8.28-18.46-18.46S39.82 31.54 50 31.54 68.46 39.82 68.46 50 60.18 68.46 50 68.46m0-34.92c-9.07 0-16.46 7.38-16.46 16.46S40.93 66.46 50 66.46 66.46 59.07 66.46 50 59.07 33.54 50 33.54" />
	<circle cx="50" cy="50" r="9.03" fill="#fff" />
	<path fill="#fff"
		d="M50 59.53c-5.26 0-9.53-4.28-9.53-9.53 0-5.26 4.28-9.53 9.53-9.53 5.26 0 9.53 4.28 9.53 9.53 0 5.26-4.27 9.53-9.53 9.53m0-18.06c-4.71 0-8.53 3.83-8.53 8.53 0 4.71 3.83 8.53 8.53 8.53 4.71 0 8.53-3.83 8.53-8.53 0-4.71-3.82-8.53-8.53-8.53" />
</svg>