<svg xmlns="http://www.w3.org/2000/svg" width="2.304" height="2.304" viewBox="0 0 1.728 1.728"><path fill="#fff" stroke="#000" stroke-width=".052" d="M1.563.267A.072.072 0 0 0 1.46.165l-.13.13a.306.306 0 0 0-.377.043L.877.415a.126.126 0 0 0 0 .178l.258.258a.126.126 0 0 0 .178 0L1.39.774a.306.306 0 0 0 .044-.378ZM.77.843A.072.072 0 0 0 .669.74L.563.847.543.826a.054.054 0 0 0-.077 0L.338.954a.306.306 0 0 0-.044.378l-.129.13a.072.072 0 1 0 .102.1l.13-.128a.306.306 0 0 0 .377-.044l.128-.128a.054.054 0 0 0 0-.076l-.02-.021.105-.106A.072.072 0 0 0 .885.957l-.106.106L.665.949Z"/></svg>