<svg xmlns="http://www.w3.org/2000/svg" width="210mm" height="297mm" viewBox="0 0 210 297"><path fill="#5e5e5e" d="M200.423 136.435a95.25 95.25 0 0 1-95.25 95.25 95.25 95.25 0 0 1-95.25-95.25 95.25 95.25 0 0 1 95.25-95.25 95.25 95.25 0 0 1 95.25 95.25"/><rect width="109.797" height="74.128" x="38.076" y="113.364" fill="none" stroke="#fff" stroke-linecap="round" stroke-width="10.537" ry="8.281"/><path fill="#5e5e5e" stroke="#5e5e5e" stroke-linecap="round" stroke-width="10.537" d="M163.67 75.322c-31.783.027-63.568 0-95.35.154-8.936 1.066-16.246 9.622-15.919 18.615.082 18.671-.052 37.344.176 56.014.053 2.139-.085 4.323.617 6.382 2.222 7.538 9.721 13.164 17.596 13.107 2.84.02 5.68-.119 8.52-.046 28.998-.023 57.998.03 86.994-.139 3.53-.382 6.898-1.994 9.513-4.276 4.17-3.581 6.79-9.035 6.525-14.573-.054-19.67-19.44-28.833-19.672-48.502-1.876-5.385-3.4 3.175-6.77.246-3.358-2.968 12.276-27.133 7.77-26.982z"/><path fill="#5e5e5e" stroke="#fff" stroke-linecap="round" stroke-width="10.537" d="M161.254 85.389c-30.448.001-60.897-.038-91.344.03-3.975.331-7.39 3.936-7.411 7.945-.08 2.781.029 5.567-.015 8.35-.001 16.82-.047 33.643.043 50.462.384 4.194 4.443 7.665 8.658 7.317 30.887.018 61.773.039 92.66-.026 4.548.306 8.717-3.97 8.41-8.497.027-19.385.042-38.77-.027-58.154-.331-4.023-4.01-7.46-8.067-7.426-.968-.04-1.938-.012-2.907-.001z"/></svg>