<?xml version="1.0" encoding="UTF-8" standalone="no"?>
<svg
   width="17.6389mm"
   height="17.2861mm"
   viewBox="0 0 50 49"
   version="1.2"
   id="svg2"
   sodipodi:docname="account-expired.svg"
   inkscape:version="1.4.4 (dcaf3e7d9e, 2026-05-05)"
   xmlns:inkscape="http://www.inkscape.org/namespaces/inkscape"
   xmlns:sodipodi="http://sodipodi.sourceforge.net/DTD/sodipodi-0.dtd"
   xmlns="http://www.w3.org/2000/svg"
   xmlns:svg="http://www.w3.org/2000/svg"
   xmlns:rdf="http://www.w3.org/1999/02/22-rdf-syntax-ns#"
   xmlns:cc="http://creativecommons.org/ns#"
   xmlns:dc="http://purl.org/dc/elements/1.1/">
  <sodipodi:namedview
     id="namedview2"
     pagecolor="#ffffff"
     bordercolor="#000000"
     borderopacity="0.25"
     inkscape:showpageshadow="2"
     inkscape:pageopacity="0.0"
     inkscape:pagecheckerboard="0"
     inkscape:deskcolor="#d1d1d1"
     inkscape:document-units="mm"
     inkscape:zoom="6.9674953"
     inkscape:cx="11.912459"
     inkscape:cy="45.496981"
     inkscape:window-width="2193"
     inkscape:window-height="1233"
     inkscape:window-x="3803"
     inkscape:window-y="874"
     inkscape:window-maximized="0"
     inkscape:current-layer="svg2" />
  <title
     id="title1">Qt SVG Document</title>
  <desc
     id="desc1">Generated with Qt</desc>
  <defs
     id="defs1" />
  <g
     fill="none"
     stroke="black"
     stroke-width="1"
     fill-rule="evenodd"
     stroke-linecap="square"
     stroke-linejoin="bevel"
     id="g2">
    <g
       fill="#aaaaaa"
       fill-opacity="1"
       stroke="none"
       transform="matrix(1,0,0,1,0,0)"
       font-family="Sans Serif"
       font-size="9"
       font-weight="400"
       font-style="normal"
       id="g1">
      <path
         vector-effect="none"
         fill-rule="evenodd"
         d="M43.75,43.75 L43.6734,42.0434 L43.4479,40.3797 L43.0802,38.7655 L42.577,37.2075 L41.9447,35.7123 L41.1901,34.2865 L40.3197,32.9367 L39.3402,31.6696 L38.2583,30.4917 L37.0804,29.4098 L35.8133,28.4303 L34.4635,27.5599 L34.0547,27.3436 L33.8388,27.5888 L32.6384,28.6455 L31.309,29.5434 L29.8656,30.2677 L28.323,30.8035 L26.6962,31.1359 L25,31.25 L23.3038,31.1359 L21.677,30.8035 L20.1344,30.2677 L18.691,29.5434 L17.3616,28.6455 L16.1612,27.5888 L15.9453,27.3436 L15.5365,27.5599 L14.1867,28.4303 L12.9196,29.4098 L11.7417,30.4917 L10.6598,31.6696 L9.68028,32.9367 L8.80992,34.2865 L8.05531,35.7123 L7.42305,37.2075 L6.91977,38.7655 L6.55209,40.3797 L6.32663,42.0434 L6.25,43.75 L43.75,43.75 M34.375,18.75 C34.375,23.9277 30.1777,28.125 25,28.125 C19.8223,28.125 15.625,23.9277 15.625,18.75 C15.625,13.5723 19.8223,9.375 25,9.375 C30.1777,9.375 34.375,13.5723 34.375,18.75 "
         id="path1" />
    </g>
  </g>
  <path
     style="fill:#ff0000;stroke-width:1.07541"
     d="m 31.908612,37.383675 c -3.549247,-0.412205 -6.839081,-2.407896 -8.865318,-5.377913 -1.140436,-1.671626 -1.850214,-3.577969 -2.0904,-5.614455 -0.121974,-1.034191 -0.0572,-2.72559 0.143304,-3.741745 0.876195,-4.440659 4.045806,-8.046949 8.32614,-9.473237 1.46483,-0.488109 2.061929,-0.576057 3.911018,-0.576057 1.44504,0 1.744327,0.02023 2.40402,0.162489 2.296975,0.49533 4.369864,1.552283 6.012663,3.06582 3.360124,3.095737 4.757753,7.722568 3.672209,12.156801 -1.233765,5.039685 -5.530251,8.803983 -10.728326,9.39945 -0.731868,0.08384 -2.058217,0.08329 -2.78531,-0.0012 z"
     id="path2"
     transform="matrix(0.7500005,0,0,0.7500005,-3.2755815e-5,0)" />
  <path
     style="fill:#ff0000;stroke-width:1.07541"
     d="M 8.4213872,57.176214 C 8.7355343,49.911645 12.26265,43.133447 18.083973,38.607236 c 0.837335,-0.651046 2.374538,-1.682662 2.937951,-1.971656 0.239197,-0.122692 0.250439,-0.122242 0.361136,0.01446 0.313613,0.387296 1.795312,1.612774 2.628359,2.173854 5.625393,3.788853 13.018372,3.788919 18.643625,1.65e-4 0.832919,-0.560991 2.314928,-1.786641 2.628333,-2.17368 0.113067,-0.139631 0.116333,-0.139557 0.408196,0.0093 0.161819,0.08255 0.708993,0.421243 1.215942,0.752644 6.773685,4.428064 10.992667,11.782509 11.337809,19.763847 l 0.04733,1.094367 H 33.333356 8.3740627 Z"
     id="path3"
     transform="matrix(0.7500005,0,0,0.7500005,-3.2755815e-5,0)" />
  <path
     style="display:inline;opacity:1;fill:#ff0000;fill-opacity:1;stroke:none;stroke-width:0;stroke-linejoin:bevel;stroke-dasharray:none;stroke-opacity:1;paint-order:stroke fill markers"
     d="M 3.3728046,62.045069 C 1.9716554,60.609345 0.82526069,59.404785 0.82526069,59.36827 c 0,-0.03652 1.77610451,-1.80679 3.94689901,-3.933944 2.1707944,-2.127153 6.2881273,-6.162831 9.1496293,-8.968173 2.861502,-2.805342 9.949774,-9.748113 15.751715,-15.42838 C 40.98173,19.966697 42.889046,18.098658 53.68482,7.5209219 l 7.003769,-6.8623173 2.598044,2.655734 c 1.428925,1.4606538 2.588318,2.6801308 2.576431,2.7099491 -0.01189,0.029818 -4.138946,4.0857883 -9.171243,9.0132683 C 51.659525,19.965035 45.200963,26.291038 42.339462,29.095341 36.521341,34.797162 34.089516,37.178979 21.420897,49.58373 16.566211,54.3373 11.12032,59.673514 9.3189169,61.441983 7.5175134,63.210452 6.0158978,64.656953 5.9819932,64.656429 5.9480885,64.655905 4.7739537,63.480793 3.3728046,62.045069 Z"
     id="path6"
     transform="matrix(0.7500005,0,0,0.7500005,-3.2755815e-5,0)" />
  <metadata
     id="metadata6">
    <rdf:RDF>
      <cc:Work
         rdf:about="">
        <dc:title>Qt SVG Document</dc:title>
      </cc:Work>
    </rdf:RDF>
  </metadata>
</svg>
