<?xml version="1.0" encoding="utf-8"?><!-- Uploaded to: SVG Repo, www.svgrepo.com, Generator: SVG Repo Mixer Tools -->
<svg fill="#000000" width="800px" height="800px" viewBox="0 0 256 256" id="Flat" xmlns="http://www.w3.org/2000/svg">
  <path d="M177.0752,114.45508A47.97683,47.97683,0,0,0,140.001,36l-76.00586-.00488h-.001a12.0006,12.0006,0,0,0-12,12v152a11.99987,11.99987,0,0,0,11.99951,12L152,212a51.99383,51.99383,0,0,0,25.0752-97.54492ZM75.99414,59.99609,140,60a24,24,0,0,1,0,48H75.99414ZM152.00049,188l-76.00635-.00391V132H152a28,28,0,0,1,.00049,56Z"/>
</svg>