<?xml version="1.0" encoding="UTF-8" standalone="no"?>
<!-- Uploaded to: SVG Repo, www.svgrepo.com, Generator: SVG Repo Mixer Tools -->
<svg width="800px" height="800px" viewBox="0 -4 28 28" version="1.1" xmlns="http://www.w3.org/2000/svg" xmlns:xlink="http://www.w3.org/1999/xlink" xmlns:sketch="http://www.bohemiancoding.com/sketch/ns">
    
    <title>bullet-list</title>
    <desc>Created with Sketch Beta.</desc>
    <defs>

</defs>
    <g id="Page-1" stroke="none" stroke-width="1" fill="none" fill-rule="evenodd" sketch:type="MSPage">
        <g id="Icon-Set" sketch:type="MSLayerGroup" transform="translate(-570.000000, -209.000000)" fill="#000000">
            <path d="M597,226 L579,226 C578.447,226 578,226.448 578,227 C578,227.553 578.447,228 579,228 L597,228 C597.553,228 598,227.553 598,227 C598,226.448 597.553,226 597,226 L597,226 Z M572,209 C570.896,209 570,209.896 570,211 C570,212.104 570.896,213 572,213 C573.104,213 574,212.104 574,211 C574,209.896 573.104,209 572,209 L572,209 Z M579,212 L597,212 C597.553,212 598,211.553 598,211 C598,210.447 597.553,210 597,210 L579,210 C578.447,210 578,210.447 578,211 C578,211.553 578.447,212 579,212 L579,212 Z M597,218 L579,218 C578.447,218 578,218.448 578,219 C578,219.553 578.447,220 579,220 L597,220 C597.553,220 598,219.553 598,219 C598,218.448 597.553,218 597,218 L597,218 Z M572,217 C570.896,217 570,217.896 570,219 C570,220.104 570.896,221 572,221 C573.104,221 574,220.104 574,219 C574,217.896 573.104,217 572,217 L572,217 Z M572,225 C570.896,225 570,225.896 570,227 C570,228.104 570.896,229 572,229 C573.104,229 574,228.104 574,227 C574,225.896 573.104,225 572,225 L572,225 Z" id="bullet-list" sketch:type="MSShapeGroup">

</path>
        </g>
    </g>
</svg>