<svg width="24" height="24" xmlns="http://www.w3.org/2000/svg" fill="#fff"><path d="M7 2a.75.75 0 01.704.49l2.952 7.985.012.032.223.602-.829 2.086-.626-1.694H4.564l-1.112 3.01a.75.75 0 01-1.407-.521l1.288-3.483a.752.752 0 01.012-.033L6.297 2.49A.75.75 0 017.001 2zm-1.88 8h3.762L7 4.914 5.119 10zm8.687-3.527a.75.75 0 011.394 0l5.555 14.031h.494a.75.75 0 110 1.5H18.75a.75.75 0 110-1.5h.392l-1.19-3.004h-6.91l-1.192 3.004h.399a.75.75 0 110 1.5H7.75a.75.75 0 110-1.5h.486l5.57-14.03zM17.359 16l-2.856-7.215L11.639 16h5.72z"/></svg>
