<?xml version="1.0" encoding="UTF-8" standalone="no"?>
<!-- Created with Inkscape (http://www.inkscape.org/) -->

<svg
   width="65"
   height="81.266846"
   viewBox="0 0 17.197916 21.501853"
   version="1.1"
   id="svg5"
   inkscape:version="1.1 (c68e22c387, 2021-05-23)"
   sodipodi:docname="copy.svg"
   xmlns:inkscape="http://www.inkscape.org/namespaces/inkscape"
   xmlns:sodipodi="http://sodipodi.sourceforge.net/DTD/sodipodi-0.dtd"
   xmlns="http://www.w3.org/2000/svg"
   xmlns:svg="http://www.w3.org/2000/svg">
  <sodipodi:namedview
     id="namedview7"
     pagecolor="#ffffff"
     bordercolor="#666666"
     borderopacity="1.0"
     inkscape:pageshadow="2"
     inkscape:pageopacity="0.0"
     inkscape:pagecheckerboard="0"
     inkscape:document-units="mm"
     showgrid="false"
     units="px"
     inkscape:zoom="5.6568543"
     inkscape:cx="16.882174"
     inkscape:cy="54.182057"
     inkscape:window-width="1920"
     inkscape:window-height="1003"
     inkscape:window-x="0"
     inkscape:window-y="0"
     inkscape:window-maximized="1"
     inkscape:current-layer="layer1"
     fit-margin-top="0"
     fit-margin-left="0"
     fit-margin-right="0"
     fit-margin-bottom="0"
     showguides="false" />
  <defs
     id="defs2" />
  <g
     inkscape:label="Layer 1"
     inkscape:groupmode="layer"
     id="layer1"
     transform="translate(-58.517556,-56.211228)">
    <path
       d="m 60.133086,59.034989 -0.0032,2.281946 v 11.290434 a 3.4933263,3.4933263 0 0 0 3.493327,3.493326 H 72.88429 A 2.4195315,2.4195315 0 0 1 70.603416,77.713 H 63.623187 A 5.1056306,5.1056306 0 0 1 58.517556,72.607369 V 61.316935 c 0,-1.053369 0.673944,-1.950885 1.61553,-2.281946 z m 13.163928,-2.823681 a 2.4184567,2.4184567 0 0 1 2.418459,2.418455 v 13.973303 a 2.4184567,2.4184567 0 0 1 -2.418459,2.418459 H 63.623187 A 2.4184567,2.4184567 0 0 1 61.204733,72.603066 V 58.629763 a 2.4184567,2.4184567 0 0 1 2.418454,-2.418455 z"
       fill="#212121"
       id="path822"
       style="fill:#0d0d0d;fill-opacity:1;stroke-width:1.07487" />
  </g>
</svg>
