<svg xmlns="http://www.w3.org/2000/svg" fill="#ffffff" width="100%" height="100%" version="1.1" viewBox="0 0 20 20" x="0px" y="0px">
    <g>
        <path d="M11.998 10a2 2 0 11-4 0 2 2 0 014 0z"></path>
        <path fill-rule="evenodd" d="M16.175 7.567L18 10l-1.825 2.433a9.992 9.992 0 01-2.855 2.575l-.232.14a6 6 0 01-6.175 0 35.993 35.993 0 00-.233-.14 9.992 9.992 0 01-2.855-2.575L2 10l1.825-2.433A9.992 9.992 0 016.68 4.992l.233-.14a6 6 0 016.175 0l.232.14a9.992 9.992 0 012.855 2.575zm-1.6 3.666a7.99 7.99 0 01-2.28 2.058l-.24.144a4 4 0 01-4.11 0 38.552 38.552 0 00-.239-.144 7.994 7.994 0 01-2.28-2.058L4.5 10l.925-1.233a7.992 7.992 0 012.28-2.058 37.9 37.9 0 00.24-.144 4 4 0 014.11 0l.239.144a7.996 7.996 0 012.28 2.058L15.5 10l-.925 1.233z" clip-rule="evenodd"></path>
    </g>
</svg>