<!DOCTYPE svg PUBLIC "-//W3C//DTD SVG 1.1//EN" "http://www.w3.org/Graphics/SVG/1.1/DTD/svg11.dtd">
<!-- Uploaded to: SVG Repo, www.svgrepo.com, Transformed by: SVG Repo Mixer Tools -->
<svg width="800px" height="800px" viewBox="0 0 24.00 24.00" fill="none" xmlns="http://www.w3.org/2000/svg" stroke="#000000" stroke-width="0.504">
<g id="SVGRepo_bgCarrier" stroke-width="0"/>
<g id="SVGRepo_tracerCarrier" stroke-linecap="round" stroke-linejoin="round"/>
<g id="SVGRepo_iconCarrier"> <path fill-rule="evenodd" clip-rule="evenodd" d="M7 5C7.55228 5 8 5.44772 8 6V11.5H16V6C16 5.44772 16.4477 5 17 5C17.5523 5 18 5.44772 18 6V12.5V19C18 19.5523 17.5523 20 17 20C16.4477 20 16 19.5523 16 19V13.5H8V19C8 19.5523 7.55228 20 7 20C6.44772 20 6 19.5523 6 19V12.5V6C6 5.44772 6.44772 5 7 5Z" fill="#000000"/> </g>
</svg>