<svg width="24" height="24" fill="none" viewBox="0 0 24 24" xmlns="http://www.w3.org/2000/svg"><path d="M8.505 5.004a1.5 1.5 0 0 0 0 3h7a1.5 1.5 0 0 0 0-3h-7Zm11.49-.908A2.25 2.25 0 0 0 17.75 2H6.25l-.154.005A2.25 2.25 0 0 0 4 4.25v15.5l.005.154A2.25 2.25 0 0 0 6.25 22h11.5l.154-.005A2.25 2.25 0 0 0 20 19.75V4.25l-.005-.154ZM6.25 3.5h11.5l.102.007a.75.75 0 0 1 .648.743v15.5l-.007.102a.75.75 0 0 1-.743.648H6.25l-.102-.007a.75.75 0 0 1-.648-.743V4.25l.007-.102A.75.75 0 0 1 6.25 3.5Z" fill="#212121"/></svg>
