<svg xmlns="http://www.w3.org/2000/svg" type="color-fill-alt-2" fill="#adadb8" width="16px" height="16px" version="1.1" viewBox="0 0 20 20" x="0px" y="0px">
    <g>
        <path fill-rule="evenodd" d="M16.5 18l1.5-1.5-2.876-2.876a9.99 9.99 0 001.051-1.191L18 10l-1.825-2.433a9.992 9.992 0 00-2.855-2.575 35.993 35.993 0 01-.232-.14 6 6 0 00-6.175 0 35.993 35.993 0 01-.35.211L3.5 2 2 3.5 16.5 18zm-2.79-5.79a8 8 0 00.865-.977L15.5 10l-.924-1.233a7.996 7.996 0 00-2.281-2.058 37.22 37.22 0 01-.24-.144 4 4 0 00-4.034-.044l1.53 1.53a2 2 0 012.397 2.397l1.762 1.762z" clip-rule="evenodd"></path>
        <path d="M11.35 15.85l-1.883-1.883a3.996 3.996 0 01-1.522-.532 38.552 38.552 0 00-.239-.144 7.994 7.994 0 01-2.28-2.058L4.5 10l.428-.571L3.5 8 2 10l1.825 2.433a9.992 9.992 0 002.855 2.575c.077.045.155.092.233.14a6 6 0 004.437.702z"></path>
    </g>
</svg>