<?xml version="1.0" encoding="UTF-8" standalone="no"?>
<!-- Created with Inkscape (http://www.inkscape.org/) -->

<svg
   width="65"
   height="81.266838"
   viewBox="0 0 17.197916 21.501851"
   version="1.1"
   id="svg5"
   inkscape:version="1.1 (c68e22c387, 2021-05-23)"
   sodipodi:docname="login.svg"
   xmlns:inkscape="http://www.inkscape.org/namespaces/inkscape"
   xmlns:sodipodi="http://sodipodi.sourceforge.net/DTD/sodipodi-0.dtd"
   xmlns="http://www.w3.org/2000/svg"
   xmlns:svg="http://www.w3.org/2000/svg">
  <sodipodi:namedview
     id="namedview7"
     pagecolor="#ffffff"
     bordercolor="#666666"
     borderopacity="1.0"
     inkscape:pageshadow="2"
     inkscape:pageopacity="0.0"
     inkscape:pagecheckerboard="0"
     inkscape:document-units="mm"
     showgrid="false"
     units="px"
     inkscape:zoom="1"
     inkscape:cx="-189.5"
     inkscape:cy="-97.5"
     inkscape:window-width="1920"
     inkscape:window-height="1003"
     inkscape:window-x="0"
     inkscape:window-y="0"
     inkscape:window-maximized="1"
     inkscape:current-layer="layer1"
     fit-margin-top="0"
     fit-margin-left="0"
     fit-margin-right="0"
     fit-margin-bottom="0" />
  <defs
     id="defs2" />
  <g
     inkscape:label="Layer 1"
     inkscape:groupmode="layer"
     id="layer1"
     transform="translate(-19.442342,-7.3570857)">
    <path
       id="path821"
       style="fill:#f2f2f2;fill-opacity:1;stroke-width:1.07488"
       d="m 24.547992,7.3570857 c -1.335679,9e-7 -2.418412,1.0827381 -2.418419,2.4184171 V 23.748925 c -1.7e-5,1.335695 1.082723,2.418597 2.418419,2.418599 h 9.673849 c 1.335699,0 2.418437,-1.082902 2.418418,-2.418599 V 9.7755028 c -4e-6,-1.3356808 -1.082736,-2.418418 -2.418418,-2.4184171 z m -3.490219,2.8236383 c -0.941591,0.331056 -1.615431,1.22864 -1.615431,2.28201 v 11.290555 c 0,2.819775 2.285873,5.105646 5.10565,5.105648 h 6.980254 c 1.025066,-9e-6 1.938918,-0.646007 2.280917,-1.612338 h -9.261171 c -1.929328,-2e-6 -3.493321,-1.563985 -3.49331,-3.49331 V 12.462734 Z m 10.902794,3.187212 c 0.391562,0 0.755091,0.056 1.090716,0.167872 0.337775,0.109724 0.635753,0.266675 0.893924,0.471061 0.260325,0.202236 0.470088,0.442152 0.629296,0.719688 0.159205,0.277535 0.256033,0.581882 0.290455,0.913203 h -1.813675 c -0.02797,-0.114026 -0.07217,-0.214039 -0.132406,-0.300097 -0.06024,-0.08821 -0.135531,-0.162377 -0.225892,-0.222617 -0.08821,-0.06239 -0.191406,-0.108651 -0.309736,-0.138772 -0.116178,-0.03227 -0.244098,-0.04838 -0.383942,-0.04838 -0.301201,0 -0.558347,0.07211 -0.77134,0.216252 -0.210841,0.144146 -0.372281,0.351664 -0.484157,0.622746 -0.109722,0.271082 -0.164598,0.598088 -0.164598,0.981045 0,0.387258 0.05281,0.718572 0.158232,0.993956 0.105422,0.275385 0.262373,0.486271 0.471062,0.632569 0.20869,0.146297 0.46808,0.219525 0.777887,0.219525 0.273233,0 0.500045,-0.03989 0.680766,-0.119493 0.182873,-0.0796 0.31959,-0.192539 0.40995,-0.338837 0.0853,-0.138104 0.128903,-0.300039 0.13368,-0.484156 H 32.01222 v -1.277868 h 2.930218 v 0.916478 c 0,0.602404 -0.1281,1.117635 -0.384123,1.545772 -0.253871,0.425985 -0.604479,0.752992 -1.051976,0.981045 -0.445348,0.225901 -0.956272,0.339018 -1.532858,0.339018 -0.643281,0 -1.20814,-0.136717 -1.694366,-0.40995 -0.486225,-0.273233 -0.865862,-0.662607 -1.139095,-1.168195 -0.271082,-0.505589 -0.406677,-1.106972 -0.406677,-1.804038 0,-0.546466 0.08278,-1.030423 0.248444,-1.452105 0.167812,-0.421683 0.400236,-0.777902 0.697135,-1.068346 0.296898,-0.292595 0.640012,-0.513037 1.029422,-0.661486 0.389412,-0.150601 0.806875,-0.225891 1.252223,-0.22589 z m -8.132444,0.09039 h 1.794216 v 5.163486 h 2.672135 v 1.445739 h -4.466351 z" />
  </g>
</svg>
