<svg xmlns="http://www.w3.org/2000/svg" width="24" height="24" fill="none" viewBox="0 0 24 24"><path fill="silver" d="m7 15-.53.53.586.586.524-.641zm9-11-.147-.735a.75.75 0 0 0-.434.26zm5-1 .735.147a.75.75 0 0 0-.882-.882zm-1 5 .475.58a.75.75 0 0 0 .26-.433zM9 17l-.475-.58-.641.524.586.586zm1.5 1.5-.53.53zM7 19l.53-.53-.53-.53-.53.53zm-2.5 2.5-.53.53a.75.75 0 0 0 1.06 0zm-2-2-.53-.53a.75.75 0 0 0 0 1.06zM5 17l.53.53.53-.53-.53-.53zm-1.5-1.5.53-.53zm2-2-.53.53zM7 15l.58.475 9-11L16 4l-.58-.475-9 11zm9-11 .147.735 5-1L21 3l-.147-.735-5 1zm5-1-.735-.147-1 5L20 8l.735.147 1-5zm-1 5-.475-.58-11 9L9 17l.475.58 11-9zM9 17l-.53.53 1.5 1.5.53-.53.53-.53-1.5-1.5zm1.5 1.5-.53.53c.251.252.311.473.311.626 0 .163-.068.32-.186.439a.62.62 0 0 1-.439.186c-.153 0-.374-.06-.626-.311l-.53.53-.53.53c.498.499 1.09.751 1.686.751a2.12 2.12 0 0 0 1.5-.626 2.12 2.12 0 0 0 .625-1.499c0-.597-.252-1.188-.75-1.686zm-2 2 .53-.53-1.5-1.5L7 19l-.53.53 1.5 1.5zM7 19l-.53-.53-2.5 2.5.53.53.53.53 2.5-2.5zm-2.5 2.5.53-.53-2-2-.53.53-.53.53 2 2zm-2-2 .53.53 2.5-2.5L5 17l-.53-.53-2.5 2.5zM5 17l.53-.53-1.5-1.5-.53.53-.53.53 1.5 1.5zm-1.5-1.5.53-.53c-.251-.252-.311-.473-.311-.626 0-.163.068-.32.186-.439a.62.62 0 0 1 .439-.186c.153 0 .374.06.626.311l.53-.53.53-.53c-.498-.499-1.09-.751-1.686-.751a2.12 2.12 0 0 0-1.5.626 2.12 2.12 0 0 0-.625 1.499c0 .597.252 1.188.75 1.686zm2-2-.53.53 1.5 1.5L7 15l.53-.53-1.5-1.5z"/></svg>