<svg xmlns="http://www.w3.org/2000/svg" viewBox="108 77 202 214"><path fill="#424242" d="M274.369 82.725C270.046 82.058 269.586 82.587 268.344 82.909 264.504 84.828 262.4 86.614 262.4 87.105 261.838 87.8363 261.276 88.5677 259.771 92.381 259.38 93.899 259.393 97.838 260.134 98.564 260.258 98.9 260.436 99.253 260.655 99.619 260.724 99.746 260.768 99.746 261.221 100.189 262.326 100.84 261.343 102.372 256.235 107.556 253.284 110.55 250.27 113.675 249.538 114.5 248.218 115.986 247.314 116.335 246.58 115.641 245.334 114.464 235.066 114.464 233.788 115.425 224.522 120.382 222.86 122.401 222.445 122.761 218.674 126.031 219.33 127.588 228.207 136.44L235.299 143.512 233.988 145.418C230.065 150.746 226.528 155.414 225.7 156.287 215.233 172.391 214.639 173.579 214.113 174.6 211.455 179.756 211.331 180.8 213.376 180.8 214.133 180.8 214.864 180.62 215 180.4 223.329 176.787 233.447 169.236 236.575 166.322 246.102 158.379 248.368 156.639 248.591 156.844 248.685 156.93 251.824 160.015 255.568 163.7 259.736 167.803 262.68 170.4 263.164 170.4 264.987 172.073 268.663 170.239 270.592 167.611 272.803 164.748 274.308 161.702 274.8 160.2 276.44 155.627 276.059 145.825 275.632 145.277 275.2 143.687 274.98 143.193 274.712 143.104 274.134 142.911 287.887 128.8 288.652 128.8 288.94 128.8 289.817 129.16 290.6 129.6 291.383 130.04 292.559 130.4 293.212 130.4 297.136 130.58 297.676 130.4 298.2 130.4 301.299 129.6 305.116 125.694 305.878 123.957 307.325 120.972 307.3 116.587 306.8 115.595 305.6 112.534 304.88 111.624 304 110.753 303.12 109.882 302.4 109.064 302.4 108.935 302.4 108.807 297.855 104.172 292.3 98.636 286.745 93.099 281.431 87.721 280.492 86.685 277.592 84.02 275.54 83.2 274.323 82.725M271.918 89.297C273.832 90.4 279.941 96.203 287.059 103.296L300 116.191C300.473 117 300.76 117.806 300.545 119.06 300 121.965 298.168 124 296.635 124.436 295.739 124.505 295.417 124.268 295.005 123.809 295.273 124.2 289.384 118.71 282.861 112.245 276.337 105.78 270.145 99.671 269.1 98.669 266.323 95.91 265.965 95.534 266.111 94.129 266.753 91.459 271.731 88.594 271.918 89.274M275.495 114.9C280.337 119.724 283.183 122.85 283.112 123.268 283.051 123.636 279.445 127.55 275.1 131.966L267.2 139.996C267.0763 140.076 266.238 140.693 267.151 141.616 268.821 145.085 269.503 149.175 269.2 152.886 269.086 155.348 266.852 161.255 266.216 162.143L265.233 163.286 247.017 145.155C236.997 135.183 228.803 126.749 228.807 126.412L230.06 125.608C233.52 123.629 238.153 122.272 243.023 122.31 246.296 122.415 247.969 122.973 249.274 124.147 249.655 124.556 249.999 124.563 250.172 124.355 250.501 123.915 266.319 107.2 267.178 107.2 267.501 107.2 271.243 110.665 275.495 114.9M137 124.4C132.421 125.6 130.544 126.05 130.107 126.487 127.317 127.219 117.6 137.149 117.6 139.57 117.3223 140.215 117.0447 140.86 116.767 141.505 114.591 146.449 115.43 239.2 116.444 239.2 117.6 242.477 117.96 243.22 118.4 243.692 121.326 248.41 126.752 253.002 129.1 254.028 136.957 256.8 138.463 257.013 139.593 257.274L141.647 257.748 141.523 268.474C141.438 275.862 141.532 279.201 141.825 279.2 143 283 146.957 285.6 148.22 285.6 149.722 286.521 153.478 286.521 153.8 286 161.401 281.72 180.616 268.8 180.989 268.8 184.312 266.4 187.111 264.6 190.4 262.4 193.689 260.2 196.565 258.4 196.79 258.4 197.2 257.765 206.843 257.563 223.5 257.46 248.95 257.304 252.377 257.183 254.3 256.377 255.475 255.885 256.85 255.33 257.6 255.045 259.114 254.47 265.59 249.863 265.926 249.122 271 243 271 242 272.364 238 273 237 273 184 273.03 181.808 273 179 273 178 269 178 265 178 264 179 264 182 263.746 232.091 263 234 262.755 236 260.785 241.032 256.507 244.825 254.28 245.924 250.642 247.718 250.883 247.704 221.66 247.866L194.72 248.016 192.988 249.208 152 276.4 151 277C151 277 151 272 151.105 262.5L151 248.2 145.4 247.947C139.701 247.69 137.707 247.438 136.1 246.773 134.017 245.91 132.97 245.372 132.485 244.914 129.568 242.995 127.576 240.438 126.382 238 125.897 237.01 125.342 235.887 125.15 235.505 124.644 234.502 124.694 146.4 125.2 146.4 126.4 142.734 130.648 137.6 131.302 137.302 132 136.481 137.102 134.315 138.085 134.267 139.949 133.666 143.696 133.6 174.769 133.6 210.76 133.6 211.165 133.583 211.755 132.227 213.486 130.053 213.017 126.506 212.02 124.199L210.2 124.025 173.724 124.013C149.824 124.004 137.162 124.138 137 124.4M241.479 149.391C243.454 151.114 243.58 151.57 240.735 153.694 233.55 160.006 232 160.289 232 159.662 233.6 157.297 234.68 155.796 236 154.168 238.4 150.642 238.951 150.053 240.284 148.8 240.622 148.637 241.117 149.074 241.475 149.383 M 163 204 A 1 1 0 0 0 172 204 A 1 1 0 0 0 163 204 M 193 204 A 1 1 0 0 0 202 204 A 1 1 0 0 0 193 204 M 221 204 A 1 1 0 0 0 230 204 A 1 1 0 0 0 221 204"/></svg>