<svg xmlns="http://www.w3.org/2000/svg" fill="#ffffff" width="100%" height="100%" version="1.1" viewBox="0 0 20 20" x="0px" y="0px">
    <g>
        <path d="M9 11V6h2v5H9zM9 14v-2h2v2H9z"></path>
        <path fill-rule="evenodd" clip-rule="evenodd" d="M9.52 2.32A10 10 0 013.971 4H3l.494 5.641a9 9 0 004.044 6.751L10 18l2.462-1.608a9 9 0 004.044-6.75L17 4h-.972a10 10 0 01-5.547-1.68L10 2l-.48.32zM5.485 9.468L5.177 5.94A12 12 0 0010 4.376a12 12 0 004.823 1.563l-.309 3.528a7 7 0 01-3.146 5.25L10 15.612l-1.368-.893a7 7 0 01-3.146-5.25z"></path>
    </g>
</svg>