<?xml version="1.0" encoding="UTF-8" standalone="no"?>
<svg width="17.6389mm" height="17.2861mm"
 viewBox="0 0 50 49"
 xmlns="http://www.w3.org/2000/svg" xmlns:xlink="http://www.w3.org/1999/xlink" version="1.2" baseProfile="tiny">
<title>Qt SVG Document</title>
<desc>Generated with Qt</desc>
<defs>
</defs>
<g fill="none" stroke="black" stroke-width="1" fill-rule="evenodd" stroke-linecap="square" stroke-linejoin="bevel" >

<g fill="#444444" fill-opacity="1" stroke="none" transform="matrix(1,0,0,1,0,0)"
font-family="Sans Serif" font-size="9" font-weight="400" font-style="normal" 
>
<path vector-effect="none" fill-rule="evenodd" d="M43.3927,28.6615 L43.6592,26.8566 L43.75,25 L37.261,22.5552 L36.9615,21.3593 L36.5502,20.2121 L40.5912,14.5812 L39.493,13.1032 L38.2583,11.7417 L31.9455,14.6057 L30.8976,13.9759 L29.7862,13.4491 L28.6615,6.60734 L26.8566,6.34076 L25,6.25 L22.5552,12.739 L21.3593,13.0385 L20.2121,13.4498 L14.5812,9.40885 L13.1032,10.507 L11.7417,11.7417 L14.6057,18.0545 L13.9759,19.1024 L13.4491,20.2138 L6.60734,21.3385 L6.34076,23.1434 L6.25,25 L12.739,27.4448 L13.0385,28.6407 L13.4498,29.7879 L9.40885,35.4188 L10.507,36.8968 L11.7417,38.2583 L18.0545,35.3943 L19.1024,36.0241 L20.2138,36.5509 L21.3385,43.3927 L23.1434,43.6592 L25,43.75 L27.4448,37.261 L28.6407,36.9615 L29.7879,36.5502 L35.4188,40.5912 L36.8968,39.493 L38.2583,38.2583 L35.3943,31.9455 L36.0241,30.8976 L36.5509,29.7862 L43.3927,28.6615 M31.25,25 L30.9314,26.9755 L30.0441,28.6912 L28.6912,30.0441 L26.9755,30.9314 L25,31.25 L23.0245,30.9314 L21.3088,30.0441 L19.9559,28.6912 L19.0686,26.9755 L18.75,25 L19.0686,23.0245 L19.9559,21.3088 L21.3088,19.9559 L23.0245,19.0686 L25,18.75 L26.9755,19.0686 L28.6912,19.9559 L30.0441,21.3088 L30.9314,23.0245 L31.25,25"/>
</g>
</g>
</svg>
