<?xml version="1.0" encoding="UTF-8" standalone="no"?>
<svg
   width="48"
   height="48"
   viewBox="0 0 48 48"
   fill="none"
   version="1.1"
   id="svg1"
   sodipodi:docname="warningLightMode.svg"
   inkscape:version="1.4 (e7c3feb100, 2024-10-09)"
   xmlns:inkscape="http://www.inkscape.org/namespaces/inkscape"
   xmlns:sodipodi="http://sodipodi.sourceforge.net/DTD/sodipodi-0.dtd"
   xmlns="http://www.w3.org/2000/svg"
   xmlns:svg="http://www.w3.org/2000/svg">
  <defs
     id="defs1" />
  <sodipodi:namedview
     id="namedview1"
     pagecolor="#ffffff"
     bordercolor="#000000"
     borderopacity="0.25"
     inkscape:showpageshadow="2"
     inkscape:pageopacity="0.0"
     inkscape:pagecheckerboard="0"
     inkscape:deskcolor="#d1d1d1"
     inkscape:zoom="10.842304"
     inkscape:cx="23.565102"
     inkscape:cy="34.494513"
     inkscape:window-width="1202"
     inkscape:window-height="805"
     inkscape:window-x="0"
     inkscape:window-y="0"
     inkscape:window-maximized="0"
     inkscape:current-layer="svg1" />
  <path
     d="M20.4713 6.22838C22.0881 3.23848 26.3866 3.26227 27.9702 6.26991L43.5041 35.7716C44.9943 38.6017 42.942 42.0017 39.7435 42.0017H8.25595C5.03672 42.0017 2.98626 38.5617 4.51756 35.73L20.4713 6.22838ZM24 15C23.3096 15 22.75 15.5596 22.75 16.25V27.75C22.75 28.4404 23.3096 29 24 29C24.6904 29 25.25 28.4404 25.25 27.75V16.25C25.25 15.5596 24.6904 15 24 15ZM24 35C25.1046 35 26 34.1046 26 33C26 31.8954 25.1046 31 24 31C22.8954 31 22 31.8954 22 33C22 34.1046 22.8954 35 24 35Z"
     fill="#212121"
     id="path1"
     style="fill:#e69a00;fill-opacity:1" />
</svg>
