<svg xmlns="http://www.w3.org/2000/svg" width="1247pt" height="404pt" viewBox="0 0 1247 404"><g class="graph"><path fill="#fff" d="M0 404V0h1247.09v404z"/><g class="node" transform="translate(4 400)"><title>w1</title><path fill="none" stroke="#000" d="M889.59-396H754.5v36h135.09z"/><text xml:space="preserve" x="822.04" y="-373.8" font-family="Times,serif" font-size="14" text-anchor="middle">Window(type=Main)</text></g><g class="node" transform="translate(4 400)"><title>w1p1</title><path fill="none" stroke="#000" d="M755.04-324h-54v36h54z"/><text xml:space="preserve" x="728.04" y="-301.8" font-family="Times,serif" font-size="14" text-anchor="middle">...</text></g><g class="edge" transform="translate(4 400)"><title>w1-&gt;w1p1</title><path fill="none" stroke="#000" d="M798.81-359.7c-11.64 8.67-25.91 19.3-38.59 28.74"/><path stroke="#000" d="m762.66-328.42-10.11 3.17 5.93-8.78z"/></g><g class="node" transform="translate(4 400)"><title>w1p2</title><path fill="none" stroke="#000" d="M870.87-324h-97.66v36h97.66z"/><text xml:space="preserve" x="822.04" y="-301.8" font-family="Times,serif" font-size="14" text-anchor="middle">SplitContainer</text></g><g class="edge" transform="translate(4 400)"><title>w1-&gt;w1p2</title><path fill="none" stroke="#000" d="M822.04-359.7v24.16"/><path stroke="#000" d="m825.54-335.62-3.5 10-3.5-10z"/></g><g class="node" transform="translate(4 400)"><title>w1p3</title><path fill="none" stroke="#000" d="M943.04-324h-54v36h54z"/><text xml:space="preserve" x="916.04" y="-301.8" font-family="Times,serif" font-size="14" text-anchor="middle">...</text></g><g class="edge" transform="translate(4 400)"><title>w1-&gt;w1p3</title><path fill="none" stroke="#000" d="M845.28-359.7c11.64 8.67 25.91 19.3 38.58 28.74"/><path stroke="#000" d="m885.61-334.03 5.93 8.78-10.12-3.17z"/></g><g class="node" transform="translate(4 400)"><title>w1p2b</title><path fill="none" stroke="#000" d="M1025-252H619.08v36H1025z"/><text xml:space="preserve" x="822.04" y="-229.8" font-family="Times,serif" font-size="14" text-anchor="middle">SplitContainerNode(type=VerticalContainer, hflex=1.00, vflex=1.00)</text></g><g class="edge" transform="translate(4 400)"><title>w1p2-&gt;w1p2b</title><path fill="none" stroke="#000" d="M822.04-287.7v24.16"/><path stroke="#000" d="m825.54-263.62-3.5 10-3.5-10z"/></g><g class="node" transform="translate(4 400)"><title>w1p2bc1</title><path fill="none" stroke="#000" d="M835.4-180H414.69v36H835.4z"/><text xml:space="preserve" x="625.04" y="-157.8" font-family="Times,serif" font-size="14" text-anchor="middle">SplitContainerNode(type=HorizontalContainer, hflex=1.00, vflex=1.35)</text></g><g class="edge" transform="translate(4 400)"><title>w1p2b-&gt;w1p2bc1</title><path fill="none" stroke="#000" d="M772.84-215.52c-26.78 9.52-60.11 21.36-88.34 31.39"/><path stroke="#000" d="m685.98-180.94-10.59.05 8.25-6.64z"/></g><g class="node" transform="translate(4 400)"><title>w1p2bc2</title><path fill="none" stroke="#000" d="M1239.09-180H907v36h332.09z"/><text xml:space="preserve" x="1073.04" y="-157.8" font-family="Times,serif" font-size="14" text-anchor="middle">SplitContainerNode(type=Split, hflex=1.00, vflex=0.65)</text></g><g class="edge" transform="translate(4 400)"><title>w1p2b-&gt;w1p2bc2</title><path fill="none" stroke="#000" d="M884.73-215.52c34.88 9.73 78.46 21.88 114.92 32.05"/><path stroke="#000" d="m1000.57-186.85 8.69 6.06-10.57.69z"/></g><g class="node" transform="translate(4 400)"><title>w1p2bc1c1</title><path fill="none" stroke="#000" d="M332.09-108H0v36h332.09z"/><text xml:space="preserve" x="166.04" y="-85.8" font-family="Times,serif" font-size="14" text-anchor="middle">SplitContainerNode(type=Split, hflex=1.00, vflex=1.00)</text></g><g class="edge" transform="translate(4 400)"><title>w1p2bc1-&gt;w1p2bc1c1</title><path fill="none" stroke="#000" d="M510.4-143.52c-66.53 10.15-150.41 22.94-218.73 33.36"/><path stroke="#000" d="m292.33-106.72-10.42-1.95 9.36-4.97z"/></g><g class="node" transform="translate(4 400)"><title>w1p2bc1c2</title><path fill="none" stroke="#000" d="M682.09-108H350v36h332.09z"/><text xml:space="preserve" x="516.04" y="-85.8" font-family="Times,serif" font-size="14" text-anchor="middle">SplitContainerNode(type=Split, hflex=0.93, vflex=1.00)</text></g><g class="edge" transform="translate(4 400)"><title>w1p2bc1-&gt;w1p2bc1c2</title><path fill="none" stroke="#000" d="M597.82-143.52c-13.76 8.84-30.64 19.68-45.49 29.22"/><path stroke="#000" d="m554.5-111.54-10.31 2.46 6.53-8.35z"/></g><g class="node" transform="translate(4 400)"><title>w1p2bc1c3</title><path fill="none" stroke="#000" d="M1032.09-108H700v36h332.09z"/><text xml:space="preserve" x="866.04" y="-85.8" font-family="Times,serif" font-size="14" text-anchor="middle">SplitContainerNode(type=Split, hflex=1.07, vflex=1.00)</text></g><g class="edge" transform="translate(4 400)"><title>w1p2bc1-&gt;w1p2bc1c3</title><path fill="none" stroke="#000" d="M685.24-143.52c33.48 9.73 75.33 21.88 110.33 32.05"/><path stroke="#000" d="m796.12-114.95 8.63 6.15-10.58.57z"/></g><g class="node" transform="translate(4 400)"><title>w1p2bc1c1s</title><path fill="none" stroke="#000" d="M235.92-36H96.17V0h139.75z"/><text xml:space="preserve" x="166.04" y="-13.8" font-family="Times,serif" font-size="14" text-anchor="middle">Split(channel=foobar)</text></g><g class="edge" transform="translate(4 400)"><title>w1p2bc1c1-&gt;w1p2bc1c1s</title><path fill="none" stroke="#000" d="M166.04-71.7v24.16"/><path stroke="#000" d="m169.54-47.62-3.5 10-3.5-10z"/></g><g class="node" transform="translate(4 400)"><title>w1p2bc1c2s</title><path fill="none" stroke="#000" d="M577.36-36H454.73V0h122.63z"/><text xml:space="preserve" x="516.04" y="-13.8" font-family="Times,serif" font-size="14" text-anchor="middle">Split(channel=baz)</text></g><g class="edge" transform="translate(4 400)"><title>w1p2bc1c2-&gt;w1p2bc1c2s</title><path fill="none" stroke="#000" d="M516.04-71.7v24.16"/><path stroke="#000" d="m519.54-47.62-3.5 10-3.5-10z"/></g><g class="node" transform="translate(4 400)"><title>w1p2bc1c3s</title><path fill="none" stroke="#000" d="M945.26-36H786.83V0h158.43z"/><text xml:space="preserve" x="866.04" y="-13.8" font-family="Times,serif" font-size="14" text-anchor="middle">Split(channel=/mentions)</text></g><g class="edge" transform="translate(4 400)"><title>w1p2bc1c3-&gt;w1p2bc1c3s</title><path fill="none" stroke="#000" d="M866.04-71.7v24.16"/><path stroke="#000" d="m869.54-47.62-3.5 10-3.5-10z"/></g><g class="node" transform="translate(4 400)"><title>w1p2bc2s</title><path fill="none" stroke="#000" d="M1206.09-108H1050v36h156.09z"/><text xml:space="preserve" x="1128.04" y="-85.8" font-family="Times,serif" font-size="14" text-anchor="middle">Split(channel=/automod)</text></g><g class="edge" transform="translate(4 400)"><title>w1p2bc2-&gt;w1p2bc2s</title><path fill="none" stroke="#000" d="M1086.64-143.7c6.33 8.06 13.99 17.81 20.99 26.72"/><path stroke="#000" d="m1110.24-119.32 3.43 10.03-8.93-5.71z"/></g></g></svg>